<svg xmlns="http://www.w3.org/2000/svg" viewBox="0 0 400 300" fill="none">
  <defs>
    <linearGradient id="sc3-bg" x1="0%" y1="0%" x2="100%" y2="100%">
      <stop offset="0%" stop-color="#FEE2E2"/>
      <stop offset="100%" stop-color="#FFF7ED"/>
    </linearGradient>
    <linearGradient id="sc3-accent" x1="0%" y1="0%" x2="100%" y2="100%">
      <stop offset="0%" stop-color="#EF4444"/>
      <stop offset="100%" stop-color="#F97316"/>
    </linearGradient>
  </defs>
  <!-- Background -->
  <rect width="400" height="300" rx="12" fill="url(#sc3-bg)"/>
  <!-- Code editor mockup -->
  <rect x="30" y="30" width="340" height="240" rx="10" fill="#1E1E2E" stroke="#374151" stroke-width="1"/>
  <!-- Title bar -->
  <rect x="30" y="30" width="340" height="28" rx="10" fill="#2D2D3F"/>
  <rect x="30" y="48" width="340" height="10" fill="#2D2D3F"/>
  <circle cx="50" cy="44" r="5" fill="#FCA5A5"/>
  <circle cx="68" cy="44" r="5" fill="#FCD34D"/>
  <circle cx="86" cy="44" r="5" fill="#6EE7B7"/>
  <!-- Tab -->
  <rect x="120" y="34" width="80" height="20" rx="4" fill="#1E1E2E"/>
  <rect x="130" y="40" width="60" height="8" rx="2" fill="#6B7280"/>
  <!-- Line numbers -->
  <g fill="#4B5563" font-size="10" font-family="monospace">
    <rect x="42" y="68" width="14" height="8" rx="1" fill="#4B5563" opacity="0.5"/>
    <rect x="42" y="84" width="14" height="8" rx="1" fill="#4B5563" opacity="0.5"/>
    <rect x="42" y="100" width="14" height="8" rx="1" fill="#4B5563" opacity="0.5"/>
    <rect x="42" y="116" width="14" height="8" rx="1" fill="#4B5563" opacity="0.5"/>
    <rect x="42" y="132" width="14" height="8" rx="1" fill="#4B5563" opacity="0.5"/>
    <rect x="42" y="148" width="14" height="8" rx="1" fill="#4B5563" opacity="0.5"/>
    <rect x="42" y="164" width="14" height="8" rx="1" fill="#4B5563" opacity="0.5"/>
    <rect x="42" y="180" width="14" height="8" rx="1" fill="#4B5563" opacity="0.5"/>
    <rect x="42" y="196" width="14" height="8" rx="1" fill="#4B5563" opacity="0.5"/>
    <rect x="42" y="212" width="14" height="8" rx="1" fill="#4B5563" opacity="0.5"/>
    <rect x="42" y="228" width="14" height="8" rx="1" fill="#4B5563" opacity="0.5"/>
  </g>
  <!-- Code lines -->
  <rect x="68" y="68" width="70" height="8" rx="2" fill="#C084FC" opacity="0.8"/>
  <rect x="145" y="68" width="90" height="8" rx="2" fill="#67E8F9" opacity="0.6"/>
  <rect x="68" y="84" width="40" height="8" rx="2" fill="#F97316" opacity="0.8"/>
  <rect x="115" y="84" width="120" height="8" rx="2" fill="#A3E635" opacity="0.6"/>
  <rect x="82" y="100" width="55" height="8" rx="2" fill="#FB923C" opacity="0.7"/>
  <rect x="145" y="100" width="80" height="8" rx="2" fill="#FCD34D" opacity="0.6"/>
  <rect x="82" y="116" width="100" height="8" rx="2" fill="#67E8F9" opacity="0.5"/>
  <rect x="82" y="132" width="140" height="8" rx="2" fill="#A3E635" opacity="0.5"/>
  <rect x="82" y="148" width="80" height="8" rx="2" fill="#FB923C" opacity="0.7"/>
  <rect x="170" y="148" width="60" height="8" rx="2" fill="#C084FC" opacity="0.5"/>
  <rect x="68" y="164" width="30" height="8" rx="2" fill="#F97316" opacity="0.8"/>
  <rect x="68" y="180" width="50" height="8" rx="2" fill="#C084FC" opacity="0.8"/>
  <rect x="125" y="180" width="100" height="8" rx="2" fill="#67E8F9" opacity="0.6"/>
  <!-- Highlighted line -->
  <rect x="30" y="194" width="340" height="20" fill="#F97316" opacity="0.08"/>
  <rect x="68" y="196" width="160" height="8" rx="2" fill="#FCD34D" opacity="0.8"/>
  <rect x="68" y="212" width="90" height="8" rx="2" fill="#A3E635" opacity="0.6"/>
  <rect x="165" y="212" width="70" height="8" rx="2" fill="#FB923C" opacity="0.5"/>
  <rect x="68" y="228" width="40" height="8" rx="2" fill="#C084FC" opacity="0.7"/>
  <!-- Cursor blink -->
  <rect x="108" y="228" width="2" height="10" fill="#F97316" opacity="0.9"/>
</svg>
