<svg xmlns="http://www.w3.org/2000/svg" viewBox="0 0 128 128">
  <rect width="128" height="128" rx="8" fill="#3178c6"/>
  <path fill="#fff" d="M82.8 89.2c2.1 3.2 5.3 5.8 9.5 7.4 4.3 1.7 8.9 2.5 13.8 2.5 4.7 0 8.9-.7 12.8-2.1 3.8-1.4 6.9-3.5 9.1-6.3 2.2-2.8 3.4-6.2 3.4-10.2 0-2.9-.6-5.4-1.7-7.4-1.1-2-2.7-3.8-4.6-5.2-2-1.5-4.2-2.7-6.7-3.8-2.5-1.1-5.2-2.1-7.9-3-2.8-1-5.2-1.8-7.2-2.6-2-.8-3.6-1.7-4.8-2.7-1.2-1-2-2.1-2.5-3.3-.5-1.2-.8-2.6-.8-4.3 0-1.5.3-2.9 1-4.2.7-1.3 1.7-2.4 3-3.3 1.3-.9 3-1.6 4.9-2.1 2-.5 4.2-.7 6.7-.7 1.8 0 3.8.2 5.8.5 2 .4 3.9.9 5.6 1.7 1.7.8 3.3 1.8 4.6 3 1.3 1.2 2.3 2.7 2.9 4.4l10.8-6.2c-1-2.7-2.6-5.1-4.8-7.2-2.2-2.1-5-3.8-8.5-5.1-3.4-1.3-7.5-1.9-12.2-1.9-4.5 0-8.7.7-12.4 2.2-3.7 1.4-6.7 3.5-8.8 6.3-2.2 2.7-3.3 6-3.3 9.8 0 4.2 1.2 7.7 3.5 10.3 2.3 2.7 5.3 4.8 9 6.3 3.7 1.6 7.6 3 11.8 4.3 2.5.8 4.8 1.7 6.7 2.6 1.9.9 3.5 2 4.6 3.3 1.2 1.3 1.7 2.9 1.7 4.9 0 2.7-1.2 4.9-3.5 6.5-2.3 1.6-5.5 2.5-9.5 2.5-3.2 0-6.2-.6-9-1.8-2.8-1.2-5.2-3.1-7.1-5.7l-10.6 6.4z"/>
  <path fill="#fff" d="M10 57h52v11H38.8v43H27.2V68H10V57z"/>
</svg>
